<svg width="83" height="83" viewBox="0 0 83 83" fill="none" xmlns="http://www.w3.org/2000/svg">
<path d="M30.616 66.512C27.7147 66.512 25.1547 65.8507 22.936 64.528C20.76 63.1627 19.0533 61.264 17.816 58.832C16.6213 56.3573 16.024 53.52 16.024 50.32H24.728C24.728 52.8373 25.2613 54.864 26.328 56.4C27.4373 57.936 28.8667 58.704 30.616 58.704H35.544C37.2933 58.704 38.7013 57.9147 39.768 56.336C40.8773 54.7147 41.432 52.6027 41.432 50V21.2H50.264V50.384C50.264 53.584 49.6667 56.4 48.472 58.832C47.2773 61.264 45.592 63.1627 43.416 64.528C41.24 65.8507 38.744 66.512 35.928 66.512H30.616ZM59.7425 66.64C58.1638 66.64 56.8838 66.1707 55.9025 65.232C54.9638 64.2507 54.4945 62.9707 54.4945 61.392C54.4945 59.8133 54.9638 58.5547 55.9025 57.616C56.8838 56.6347 58.1638 56.144 59.7425 56.144C61.3212 56.144 62.5798 56.6347 63.5185 57.616C64.4998 58.5547 64.9905 59.8133 64.9905 61.392C64.9905 62.9707 64.4998 64.2507 63.5185 65.232C62.5798 66.1707 61.3212 66.64 59.7425 66.64Z" fill="white"/>
</svg>
